<?xml version="1.0" encoding="UTF-8"?>
<svg id="LOGO" xmlns="http://www.w3.org/2000/svg" viewBox="0 0 1080 1080">
  <defs>
    <style>
      .cls-1, .cls-2, .cls-3 {
        fill: #1d1b40;
      }

      .cls-4 {
        letter-spacing: 0em;
      }

      .cls-5 {
        fill: #fff;
      }

      .cls-6 {
        letter-spacing: -.02em;
      }

      .cls-7 {
        letter-spacing: -.04em;
      }

      .cls-8 {
        letter-spacing: 0em;
      }

      .cls-9 {
        letter-spacing: 0em;
      }

      .cls-10 {
        letter-spacing: -.05em;
      }

      .cls-11 {
        letter-spacing: 0em;
      }

      .cls-12 {
        letter-spacing: -.02em;
      }

      .cls-13, .cls-14, .cls-15 {
        fill: #d3824a;
      }

      .cls-14 {
        font-family: Aptos-ExtraBold, Aptos;
        font-size: 25.8px;
      }

      .cls-14, .cls-2, .cls-15, .cls-3 {
        font-weight: 700;
      }

      .cls-16 {
        letter-spacing: -.05em;
      }

      .cls-17 {
        letter-spacing: -.05em;
      }

      .cls-18 {
        fill: #f2af5e;
      }

      .cls-19 {
        letter-spacing: 0em;
      }

      .cls-2 {
        font-family: Aptos-Bold, Aptos;
        font-size: 46.16px;
      }

      .cls-15 {
        font-size: 124.69px;
      }

      .cls-15, .cls-3 {
        font-family: Signika-Bold, Signika;
      }

      .cls-3 {
        font-size: 115.35px;
      }

      .cls-20 {
        letter-spacing: -.02em;
      }

      .cls-21 {
        letter-spacing: 0em;
      }

      .cls-22 {
        letter-spacing: -.02em;
      }
    </style>
  </defs>
  <g>
    <g>
      <g>
        <circle class="cls-18" cx="250.93" cy="492.3" r="24.57"/>
        <path class="cls-18" d="M271.54,603.01c-.55,3.64,1.15,7.45,4.22,9.49,1.61,1.06,3.36,1.6,5.2,1.6,2.32,0,4.41-.84,6.27-2.01v2.97c-1.06.77-2.1,1.57-3.12,2.34-2.52,1.91-5.13,3.88-7.75,5.65-4.25,2.89-9.02,5.65-14.15,8.21-2.55,1.27-5.72,2.85-7.93,5.65-2.44,3.11-3.63,7.99-.78,11.88.87,1.19,1.92,2.09,3.13,2.7-1.3,1.42-2.25,3.17-2.41,5.33-.2,2.76,1.19,5.49,3.62,7.12,1.51,1.02,3.37,1.58,5.38,1.61.16,1.53.85,2.96,1.95,3.97,1.64,1.52,3.69,1.69,4.36,1.75.4.03.8.05,1.2.05,2.83,0,5.47-.81,7.77-1.71.39.23.8.42,1.23.58-10.76,10.52-29.31,16.16-29.31,16.16,0,0-18.15-5.58-28.82-15.99.62-.18,1.21-.43,1.76-.75,2.31.9,4.95,1.71,7.78,1.71.4,0,.8-.02,1.2-.05.67-.06,2.71-.23,4.36-1.75,1.1-1.01,1.79-2.44,1.95-3.97,2.01-.03,3.86-.59,5.38-1.61,2.43-1.63,3.82-4.36,3.62-7.12-.16-2.16-1.12-3.91-2.42-5.33,1.21-.61,2.27-1.51,3.14-2.7,2.85-3.89,1.66-8.77-.78-11.88-2.21-2.8-5.38-4.38-7.93-5.65-5.14-2.56-9.9-5.32-14.15-8.21-2.62-1.77-5.23-3.74-7.75-5.65-1.22-.92-2.48-1.88-3.75-2.81v-2.89c2.02,1.36,4.31,2.4,6.9,2.4,1.84,0,3.59-.54,5.2-1.6,3.07-2.04,4.77-5.85,4.22-9.49-.57-3.8-3.25-6.65-5.2-8.73l-.49-.53c-2.09-2.25-4.48-4.5-7.11-6.67-1.12-.93-2.3-1.85-3.52-2.76v-24.64c0-20.22,16.39-36.61,36.61-36.61,10.11,0,19.26,4.1,25.89,10.72,6.62,6.63,10.72,15.78,10.72,25.89v25.11c-1,.76-1.96,1.52-2.89,2.29-2.67,2.2-4.99,4.39-7.11,6.67l-.49.53c-1.95,2.08-4.63,4.93-5.2,8.73Z"/>
      </g>
      <g>
        <circle class="cls-13" cx="322.79" cy="504.54" r="17.63"/>
        <path class="cls-13" d="M304.52,599.71c-.83,1.17-1.9,2.27-2.87,3.24-1.7,1.68-3.48,3.33-5.36,4.94v-2.73c1.74-1.17,3.55-2.31,5.31-3.43l.06-.03c.45-.29.94-.64,1.51-1.05.31-.22.8-.57,1.35-.94Z"/>
        <path class="cls-13" d="M348.83,541.05c-11,13.79-25.86,22.24-41.59,31.17-2.32,1.32-4.64,2.63-6.94,3.97-1.39.8-2.72,1.6-4.01,2.4v-37.08c0-8.22,6.66-14.89,14.88-14.89h22.78c8.07,0,14.64,6.42,14.88,14.43Z"/>
      </g>
      <g>
        <circle class="cls-1" cx="178.8" cy="504.54" r="17.63"/>
        <g>
          <path class="cls-1" d="M204.85,541.51v36.63c-1.06-.65-2.15-1.3-3.28-1.95-2.31-1.34-4.62-2.65-6.94-3.97-16.05-9.12-31.21-17.73-42.27-32.02.66-7.61,7.05-13.58,14.83-13.58h22.78c8.22,0,14.88,6.67,14.88,14.89Z"/>
          <path class="cls-1" d="M204.85,604.67v2.6c-1.61-1.42-3.15-2.86-4.63-4.32-.97-.97-2.05-2.07-2.87-3.24.55.37,1.04.72,1.35.94.57.41,1.06.76,1.51,1.05l.05.03c1.52.96,3.08,1.94,4.59,2.94Z"/>
        </g>
      </g>
    </g>
    <path class="cls-18" d="M323.5,395.38c10.5,0,20.89,1.84,30.75,5.85,4.59,1.87,8.99,4.18,13.17,6.83,7.74,4.92,14.76,10.98,20.82,17.86,8.83,10.03,16.13,22.27,19.17,35.39,2.39,10.34,3.58,20.99,3.47,31.6-.39,36.91-21.49,70.87-43.04,99.59-21.81,29.05-48.98,54.35-80.61,72.4-1.31.75-2.65,1.51-4.14,1.73-.2.03-.4.04-.6.04-1.28,0-2.51-.61-3.25-1.68-2.72,1.15-5.57,2.32-8.5,2.32-.29,0-.58-.01-.87-.04-.71-.06-1.46-.21-1.98-.7-.54-.49-.75-1.27-.68-2,.23-2.34,3.32-3.38,5.16-4.3,2.33-1.17,4.74-2.16,7.09-3.29,3.86-1.86,7.51-4.1,11.11-6.41,3.44-2.21,7.12-4.27,10.39-6.7.56-.41,1.09-.92,1.3-1.58.32-1.02-.2-1.6-.91-1.6-.33,0-.7.13-1.05.4-1.31,1.02-2.67,1.94-4.06,2.85-4.37,2.86-8.92,5.44-13.35,8.21-4.46,2.79-8.96,5.54-13.73,7.78-1.62.76-3.3,1.43-5.1,1.57-.21.02-.41.02-.62.02-1.19,0-2.38-.27-3.36-.93-1.15-.77-1.95-2.13-1.85-3.51.25-3.42,4.85-5.55,7.46-6.91,1.37-.72,2.78-1.36,4.18-2.01,9.39-4.33,18.66-9.75,26.75-16.23,1.6-1.28,4.17-2.9,4.84-4.94.4-1.22-.41-2.13-1.5-2.13-.22,0-.44.04-.67.11-.74.24-1.33.79-1.9,1.31-2.09,1.89-4.34,3.6-6.67,5.19-5.05,3.47-10.34,6.57-15.46,9.93-3.34,2.19-6.76,4.31-10.43,5.92-1.35.59-2.81,1.06-4.19,1.06-1.46,0-2.84-.52-3.9-1.97-1.56-2.14-.83-5.09.7-7.04,1.65-2.1,4.23-3.38,6.57-4.55,5.03-2.51,9.96-5.32,14.61-8.47,4.09-2.77,7.95-5.86,11.93-8.78,4.9-3.6,9.6-7.51,13.92-11.79,1.47-1.46,2.92-2.98,3.97-4.77.85-1.43,2.55-5.22.69-6.5-.45-.31-.96-.44-1.51-.44-2.71,0-6.4,3.16-8.09,4.23-2.69,1.7-5.43,3.42-7.99,5.3-2.89,2.11-6.63,6.49-10.56,6.49-.99,0-1.99-.28-3-.94-1.79-1.18-2.79-3.44-2.47-5.56.42-2.82,2.81-5.13,4.67-7.13,2.09-2.25,4.35-4.35,6.72-6.3,4.8-3.97,10.03-7.4,15.42-10.51,18.26-10.57,37.19-19.95,50.41-37.07,25.46-32.98,30.47-96.67-12.96-117.86-.65-.32-1.31-.62-1.97-.91-7.93-3.49-16.84-5.21-25.79-5.21-11.46,0-22.99,2.82-32.59,8.38-4.83,2.8-9.15,6.39-13.07,10.34-2,2.01-3.9,4.12-5.75,6.28-.47.55-1.58,2.05-2.58,2.75-.33.23-.64.37-.92.37-.48,0-.85-.44-.96-1.66-.15-1.63.73-3.96,1.17-5.54.51-1.82,1.15-3.61,1.9-5.35,1.46-3.4,3.34-6.61,5.49-9.61,4.34-6.04,9.8-11.23,15.74-15.68,9.24-6.91,20.29-11.45,31.78-12.84,3.77-.46,7.54-.69,11.3-.69"/>
    <g>
      <path class="cls-1" d="M244.44,639.38c-1.65-2.1-4.23-3.38-6.57-4.54-5.02-2.51-9.96-5.32-14.61-8.48-4.09-2.77-7.95-5.86-11.93-8.78-4.9-3.6-9.6-7.51-13.92-11.79-1.48-1.46-2.92-2.98-3.97-4.77-.85-1.43-2.55-5.22-.69-6.5.44-.3.95-.43,1.5-.43,2.71,0,6.4,3.15,8.1,4.22,2.69,1.7,5.43,3.43,7.99,5.3,2.89,2.12,6.64,6.49,10.57,6.49.99,0,1.99-.28,2.99-.94,1.79-1.18,2.79-3.44,2.47-5.56-.42-2.81-2.81-5.13-4.67-7.13-2.09-2.26-4.35-4.35-6.72-6.31-4.8-3.96-10.03-7.39-15.41-10.51-18.26-10.57-37.2-19.95-50.41-37.06-25.47-32.99-30.47-96.67,12.96-117.87.65-.32,1.31-.62,1.97-.91,7.93-3.49,16.84-5.21,25.79-5.21,11.47,0,23,2.82,32.6,8.38,4.83,2.79,9.15,6.39,13.07,10.34,2,2.01,3.91,4.12,5.75,6.28.47.56,1.58,2.05,2.58,2.76.32.23.64.37.91.37.49,0,.85-.44.97-1.65.15-1.63-.73-3.96-1.18-5.54-.51-1.82-1.15-3.61-1.9-5.35-1.46-3.4-3.34-6.61-5.49-9.61-4.34-6.04-9.8-11.23-15.74-15.68-9.24-6.91-20.3-11.45-31.78-12.83-3.77-.46-7.54-.69-11.3-.69-10.5,0-20.9,1.83-30.76,5.84-4.58,1.87-8.99,4.18-13.17,6.84-7.73,4.92-14.76,10.97-20.81,17.86-8.83,10.03-16.13,22.27-19.17,35.39-2.39,10.34-3.58,20.98-3.47,31.6.39,36.91,21.49,70.87,43.04,99.59,21.81,29.05,48.98,54.35,80.61,72.4,1.31.74,2.66,1.5,4.15,1.72.2.03.4.05.6.05,1.28,0,2.5-.61,3.25-1.68,2.72,1.15,5.57,2.33,8.5,2.33.29,0,.58-.02.87-.04.71-.06,1.46-.21,1.98-.7.54-.49.75-1.27.68-1.99-.23-2.34-3.32-3.38-5.16-4.3-2.33-1.17-4.74-2.16-7.09-3.29-3.86-1.86-7.51-4.1-11.11-6.41-3.44-2.21-7.12-4.27-10.4-6.7-.55-.41-1.08-.92-1.29-1.58-.32-1.01.2-1.6.91-1.6.33,0,.7.13,1.05.4,1.3,1.03,2.67,1.94,4.06,2.85,4.37,2.87,8.93,5.45,13.35,8.22,4.47,2.78,8.96,5.54,13.73,7.78,1.62.76,3.3,1.43,5.1,1.57.21.01.42.02.62.02,1.19,0,2.38-.27,3.36-.93,1.15-.77,1.96-2.13,1.86-3.51-.25-3.42-4.86-5.55-7.46-6.91-1.38-.72-2.78-1.37-4.18-2.02-9.4-4.32-18.67-9.75-26.75-16.23-1.6-1.28-4.17-2.9-4.84-4.94-.4-1.22.41-2.13,1.49-2.13.22,0,.45.04.68.12.73.24,1.32.79,1.9,1.31,2.09,1.89,4.34,3.6,6.67,5.19,5.05,3.46,10.34,6.56,15.46,9.92,3.34,2.2,6.76,4.31,10.43,5.92,1.34.59,2.8,1.06,4.19,1.06,1.46,0,2.83-.52,3.89-1.98,1.57-2.13.83-5.09-.7-7.04Z"/>
      <path class="cls-5" d="M219.14,639.03c-2.62-1.64-5.32-3.33-7.95-5.1,3.33,2.38,6.89,4.65,10.65,6.79-.9-.57-1.81-1.14-2.7-1.69Z"/>
    </g>
  </g>
  <text class="cls-3" transform="translate(429.41 483.85)"><tspan x="0" y="0">EL </tspan><tspan class="cls-11" x="151.74" y="0">M</tspan><tspan x="247.82" y="0">UNDO</tspan></text>
  <text class="cls-15" transform="translate(435.81 592.05)"><tspan x="0" y="0">TE BU</tspan><tspan class="cls-8" x="323" y="0">S</tspan><tspan x="391.32" y="0">CA</tspan></text>
  <text class="cls-2" transform="translate(435.81 649.81)"><tspan x="0" y="0">JUN</tspan><tspan class="cls-12" x="82.43" y="0">T</tspan><tspan x="104.7" y="0">OS </tspan><tspan class="cls-4" x="175.72" y="0">S</tspan><tspan x="203.17" y="0">A</tspan><tspan class="cls-16" x="231.79" y="0">L</tspan><tspan class="cls-7" x="252.91" y="0">V</tspan><tspan x="279.44" y="0">AMOS VI</tspan><tspan class="cls-6" x="459.01" y="0">D</tspan><tspan class="cls-9" x="490.73" y="0">A</tspan><tspan x="519.19" y="0">S</tspan></text>
  <text class="cls-14" transform="translate(678.58 686.13)"><tspan class="cls-20" x="0" y="0">V</tspan><tspan class="cls-21" x="15.71" y="0">O</tspan><tspan class="cls-22" x="34.78" y="0">L</tspan><tspan class="cls-21" x="47.67" y="0">UN</tspan><tspan class="cls-10" x="84.61" y="0">T</tspan><tspan class="cls-19" x="96.65" y="0">ARIOS DIGI</tspan><tspan class="cls-17" x="230.54" y="0">T</tspan><tspan x="242.59" y="0">ALES</tspan></text>
</svg>