<?xml version="1.0" encoding="UTF-8"?>
<svg id="LOGO" xmlns="http://www.w3.org/2000/svg" viewBox="0 0 1080 1080">
  <defs>
    <style>
      .cls-1 {
        fill: #1d1b40;
      }

      .cls-2 {
        fill: #fff;
      }

      .cls-3 {
        fill: #d3824a;
      }

      .cls-4 {
        fill: #f2af5e;
      }
    </style>
  </defs>
  <g>
    <g>
      <circle class="cls-4" cx="540" cy="401.99" r="69.82"/>
      <path class="cls-4" d="M598.56,716.61c-1.56,10.34,3.27,21.17,11.99,26.97,4.58,3.01,9.55,4.55,14.78,4.55,6.59,0,12.53-2.39,17.82-5.71v8.44c-3.01,2.19-5.97,4.46-8.87,6.65-7.16,5.43-14.58,11.03-22.02,16.06-12.08,8.21-25.63,16.06-40.21,23.33-7.25,3.61-16.25,8.1-22.54,16.06-6.93,8.84-10.32,22.71-2.22,33.76,2.47,3.38,5.46,5.94,8.9,7.67-3.69,4.04-6.39,9.01-6.85,15.15-.57,7.84,3.38,15.6,10.29,20.23,4.29,2.9,9.58,4.49,15.29,4.58.46,4.35,2.42,8.41,5.54,11.28,4.66,4.32,10.49,4.8,12.39,4.97,1.14.09,2.27.14,3.41.14,8.04,0,15.54-2.3,22.08-4.86,1.11.65,2.27,1.19,3.5,1.65-30.58,29.9-83.29,45.92-83.29,45.92,0,0-51.58-15.86-81.9-45.44,1.76-.51,3.44-1.22,5-2.13,6.56,2.56,14.07,4.86,22.11,4.86,1.14,0,2.27-.06,3.41-.14,1.9-.17,7.7-.65,12.39-4.97,3.13-2.87,5.09-6.93,5.54-11.28,5.71-.09,10.97-1.68,15.29-4.58,6.91-4.63,10.86-12.39,10.29-20.23-.45-6.14-3.18-11.11-6.88-15.15,3.44-1.73,6.45-4.29,8.92-7.67,8.1-11.05,4.72-24.92-2.22-33.76-6.28-7.96-15.29-12.45-22.54-16.06-14.61-7.28-28.13-15.12-40.21-23.33-7.45-5.03-14.86-10.63-22.02-16.06-3.47-2.61-7.05-5.34-10.66-7.99v-8.21c5.74,3.87,12.25,6.82,19.61,6.82,5.23,0,10.2-1.53,14.78-4.55,8.72-5.8,13.56-16.62,11.99-26.97-1.62-10.8-9.24-18.9-14.78-24.81l-1.39-1.51c-5.94-6.39-12.73-12.79-20.21-18.95-3.18-2.64-6.54-5.26-10-7.84v-70.02c0-57.46,46.58-104.04,104.04-104.04,28.73,0,54.73,11.65,73.57,30.46,18.81,18.84,30.46,44.84,30.46,73.57v71.36c-2.84,2.16-5.57,4.32-8.21,6.51-7.59,6.25-14.18,12.48-20.21,18.95l-1.39,1.51c-5.54,5.91-13.16,14.01-14.78,24.81Z"/>
    </g>
    <g>
      <circle class="cls-3" cx="744.2" cy="436.76" r="50.11"/>
      <path class="cls-3" d="M692.28,707.23c-2.36,3.33-5.4,6.45-8.16,9.21-4.83,4.77-9.89,9.46-15.23,14.04v-7.76c4.94-3.33,10.09-6.56,15.09-9.75l.17-.09c1.28-.82,2.67-1.82,4.29-2.98.88-.63,2.27-1.62,3.84-2.67Z"/>
      <path class="cls-3" d="M818.2,540.53c-31.26,39.19-73.49,63.2-118.19,88.58-6.59,3.75-13.19,7.47-19.72,11.28-3.95,2.27-7.73,4.55-11.4,6.82v-105.37c0-23.36,18.93-42.31,42.29-42.31h64.74c22.93,0,41.6,18.24,42.29,41.01Z"/>
    </g>
    <g>
      <circle class="cls-1" cx="335.03" cy="436.76" r="50.11"/>
      <g>
        <path class="cls-1" d="M409.04,541.84v104.09c-3.01-1.85-6.11-3.69-9.32-5.54-6.56-3.81-13.13-7.53-19.72-11.28-45.61-25.92-88.69-50.38-120.12-90.99,1.88-21.63,20.03-38.59,42.14-38.59h64.74c23.36,0,42.29,18.95,42.29,42.31Z"/>
        <path class="cls-1" d="M409.04,721.33v7.39c-4.58-4.04-8.95-8.13-13.16-12.28-2.76-2.76-5.83-5.88-8.16-9.21,1.56,1.05,2.96,2.05,3.84,2.67,1.62,1.17,3.01,2.16,4.29,2.98l.14.09c4.32,2.73,8.75,5.51,13.04,8.36Z"/>
      </g>
    </g>
  </g>
  <path class="cls-4" d="M746.22,126.56c29.84,0,59.38,5.22,87.39,16.62,13.04,5.31,25.55,11.87,37.43,19.42,21.99,13.98,41.94,31.2,59.15,50.75,25.09,28.5,45.84,63.3,54.46,100.57,6.8,29.39,10.17,59.64,9.86,89.81-1.1,104.88-61.07,201.4-122.31,283.01-61.97,82.57-139.19,154.46-229.07,205.74-3.72,2.12-7.54,4.28-11.78,4.91-.57.08-1.14.13-1.71.13-3.64,0-7.13-1.73-9.24-4.77-7.74,3.27-15.82,6.6-24.15,6.6-.82,0-1.65-.03-2.48-.1-2.02-.17-4.14-.61-5.64-1.98-1.52-1.4-2.14-3.61-1.93-5.67.66-6.64,9.44-9.6,14.67-12.22,6.62-3.32,13.48-6.13,20.16-9.35,10.96-5.28,21.35-11.64,31.57-18.21,9.77-6.28,20.24-12.13,29.54-19.04,1.58-1.17,3.09-2.61,3.68-4.49.9-2.88-.57-4.55-2.58-4.55-.94,0-2,.36-2.99,1.14-3.71,2.91-7.59,5.51-11.55,8.11-12.41,8.14-25.35,15.47-37.94,23.33-12.68,7.92-25.46,15.76-39.01,22.11-4.61,2.16-9.36,4.06-14.5,4.47-.58.05-1.17.07-1.76.07-3.37,0-6.76-.78-9.55-2.65-3.27-2.2-5.55-6.05-5.27-9.98.7-9.72,13.79-15.78,21.2-19.65,3.9-2.03,7.89-3.87,11.88-5.71,26.69-12.3,53.03-27.71,76.01-46.13,4.55-3.64,11.85-8.24,13.76-14.04,1.14-3.46-1.17-6.05-4.25-6.05-.61,0-1.25.1-1.91.32-2.1.7-3.77,2.26-5.41,3.73-5.95,5.37-12.34,10.22-18.96,14.74-14.35,9.85-29.39,18.66-43.93,28.21-9.5,6.24-19.21,12.25-29.63,16.82-3.82,1.68-7.97,3.01-11.9,3.01-4.15,0-8.06-1.48-11.08-5.61-4.45-6.08-2.35-14.47,2-20.01,4.68-5.96,12.02-9.62,18.66-12.92,14.29-7.12,28.31-15.12,41.53-24.08,11.62-7.88,22.6-16.65,33.91-24.96,13.94-10.24,27.27-21.33,39.56-33.51,4.19-4.15,8.29-8.47,11.28-13.55,2.4-4.08,7.24-14.83,1.97-18.46-1.27-.87-2.72-1.24-4.29-1.24-7.7,0-18.18,8.97-23,12.01-7.64,4.82-15.43,9.73-22.72,15.07-8.21,6.01-18.85,18.43-30.02,18.43-2.82,0-5.66-.79-8.51-2.67-5.08-3.35-7.93-9.78-7.03-15.79,1.21-8,8-14.59,13.27-20.28,5.94-6.41,12.37-12.35,19.1-17.91,13.64-11.28,28.51-21.02,43.82-29.88,51.89-30.04,105.7-56.68,143.25-105.33,72.36-93.73,86.58-274.71-36.84-334.94-1.85-.9-3.72-1.77-5.6-2.6-22.54-9.91-47.86-14.8-73.3-14.8-32.58,0-65.34,8.03-92.63,23.81-13.73,7.94-26,18.15-37.16,29.38-5.68,5.72-11.09,11.72-16.33,17.85-1.35,1.57-4.49,5.83-7.33,7.83-.93.65-1.82,1.06-2.6,1.06-1.37,0-2.42-1.26-2.73-4.7-.43-4.62,2.07-11.24,3.33-15.73,1.46-5.18,3.28-10.25,5.4-15.19,4.15-9.66,9.48-18.78,15.61-27.31,12.34-17.16,27.85-31.92,44.73-44.55,26.25-19.65,57.67-32.54,90.3-36.48,10.71-1.29,21.43-1.96,32.12-1.96"/>
  <g>
    <path class="cls-1" d="M521.55,819.96c-4.69-5.97-12.02-9.61-18.67-12.9-14.27-7.13-28.3-15.12-41.52-24.1-11.62-7.87-22.59-16.65-33.9-24.95-13.92-10.23-27.28-21.34-39.56-33.5-4.21-4.15-8.3-8.47-11.28-13.56-2.42-4.06-7.25-14.83-1.96-18.47,1.25-.85,2.7-1.22,4.26-1.22,7.7,0,18.19,8.95,23.02,11.99,7.64,4.83,15.43,9.75,22.71,15.06,8.21,6.02,18.87,18.44,30.04,18.44,2.81,0,5.66-.8,8.5-2.67,5.09-3.35,7.93-9.78,7.02-15.8-1.19-7.99-7.99-14.58-13.27-20.26-5.94-6.42-12.36-12.36-19.1-17.93-13.64-11.25-28.5-21-43.79-29.87-51.89-30.04-105.71-56.69-143.25-105.32-72.38-93.75-86.59-274.72,36.83-334.96,1.85-.91,3.72-1.76,5.6-2.59,22.54-9.92,47.86-14.81,73.29-14.81,32.6,0,65.36,8.01,92.64,23.81,13.73,7.93,26,18.16,37.14,29.38,5.68,5.71,11.11,11.71,16.34,17.85,1.34,1.59,4.49,5.83,7.33,7.84.91.65,1.82,1.05,2.59,1.05,1.39,0,2.42-1.25,2.76-4.69.43-4.63-2.07-11.25-3.35-15.74-1.45-5.17-3.27-10.26-5.4-15.2-4.15-9.66-9.49-18.78-15.6-27.31-12.33-17.16-27.85-31.91-44.73-44.56-26.26-19.64-57.69-32.54-90.31-36.46-10.71-1.31-21.43-1.96-32.11-1.96-29.84,0-59.39,5.2-87.41,16.6-13.02,5.31-25.55,11.88-37.43,19.44-21.97,13.98-41.94,31.17-59.14,50.75-25.09,28.5-45.84,63.29-54.48,100.57-6.79,29.38-10.17,59.62-9.86,89.8,1.11,104.89,61.07,201.4,122.31,283.01,61.98,82.55,139.19,154.45,229.08,205.75,3.72,2.1,7.56,4.26,11.79,4.89.57.09,1.14.14,1.71.14,3.64,0,7.1-1.73,9.24-4.77,7.73,3.27,15.83,6.62,24.16,6.62.82,0,1.65-.06,2.47-.11,2.02-.17,4.15-.6,5.63-1.99,1.53-1.39,2.13-3.61,1.93-5.66-.65-6.65-9.43-9.61-14.66-12.22-6.62-3.33-13.47-6.14-20.15-9.35-10.97-5.29-21.34-11.65-31.57-18.22-9.78-6.28-20.23-12.13-29.55-19.04-1.56-1.17-3.07-2.61-3.67-4.49-.91-2.87.57-4.55,2.59-4.55.94,0,1.99.37,2.98,1.14,3.69,2.93,7.59,5.51,11.54,8.1,12.42,8.16,25.38,15.49,37.94,23.36,12.7,7.9,25.46,15.74,39.02,22.11,4.6,2.16,9.38,4.06,14.49,4.46.6.03,1.19.06,1.76.06,3.38,0,6.76-.77,9.55-2.64,3.27-2.19,5.57-6.05,5.29-9.97-.71-9.72-13.81-15.77-21.2-19.64-3.92-2.05-7.9-3.89-11.88-5.74-26.71-12.28-53.06-27.71-76.02-46.12-4.55-3.64-11.85-8.24-13.75-14.04-1.14-3.47,1.17-6.05,4.23-6.05.63,0,1.28.11,1.93.34,2.07.68,3.75,2.25,5.4,3.72,5.94,5.37,12.33,10.23,18.95,14.75,14.35,9.83,29.38,18.64,43.93,28.19,9.49,6.25,19.21,12.25,29.64,16.82,3.81,1.68,7.96,3.01,11.91,3.01,4.15,0,8.04-1.48,11.05-5.63,4.46-6.05,2.36-14.46-1.99-20.01Z"/>
    <path class="cls-2" d="M449.65,818.97c-7.45-4.66-15.12-9.46-22.59-14.49,9.46,6.76,19.58,13.21,30.27,19.3-2.56-1.62-5.14-3.24-7.67-4.8Z"/>
  </g>
</svg>